<mxfile host="Electron" agent="Mozilla/5.0 (X11; Linux x86_64) AppleWebKit/537.36 (KHTML, like Gecko) draw.io/26.0.4 Chrome/128.0.6613.186 Electron/32.2.5 Safari/537.36" version="26.0.4">
  <diagram name="Page-1" id="mDlVz8PAo6t__TnKx2K2">
    <mxGraphModel dx="1114" dy="1198" grid="1" gridSize="10" guides="1" tooltips="1" connect="1" arrows="1" fold="1" page="1" pageScale="1" pageWidth="850" pageHeight="1100" math="0" shadow="0">
      <root>
        <mxCell id="0" />
        <mxCell id="1" parent="0" />
        <mxCell id="xgnre7alhAWilqti5W8Q-3" style="edgeStyle=orthogonalEdgeStyle;rounded=0;orthogonalLoop=1;jettySize=auto;html=1;" edge="1" parent="1" source="xgnre7alhAWilqti5W8Q-1" target="xgnre7alhAWilqti5W8Q-2">
          <mxGeometry relative="1" as="geometry" />
        </mxCell>
        <mxCell id="xgnre7alhAWilqti5W8Q-4" value="&amp;nbsp;asynchronous replication&amp;nbsp;" style="edgeLabel;html=1;align=center;verticalAlign=middle;resizable=0;points=[];" vertex="1" connectable="0" parent="xgnre7alhAWilqti5W8Q-3">
          <mxGeometry x="-0.0811" y="-1" relative="1" as="geometry">
            <mxPoint x="7" y="-1" as="offset" />
          </mxGeometry>
        </mxCell>
        <mxCell id="xgnre7alhAWilqti5W8Q-1" value="&lt;div&gt;S3 Bucket&lt;/div&gt;&lt;div&gt;&lt;b&gt;(eu-west-1)&lt;/b&gt;&lt;/div&gt;" style="sketch=0;outlineConnect=0;fontColor=#232F3E;gradientColor=none;fillColor=#7AA116;strokeColor=none;dashed=0;verticalLabelPosition=bottom;verticalAlign=top;align=center;html=1;fontSize=12;fontStyle=0;aspect=fixed;pointerEvents=1;shape=mxgraph.aws4.bucket;" vertex="1" parent="1">
          <mxGeometry x="233" y="440" width="75" height="78" as="geometry" />
        </mxCell>
        <mxCell id="xgnre7alhAWilqti5W8Q-2" value="&lt;div&gt;S3 Bucket&lt;/div&gt;&lt;div&gt;&lt;b&gt;(us-east-2)&lt;/b&gt;&lt;/div&gt;" style="sketch=0;outlineConnect=0;fontColor=#232F3E;gradientColor=none;fillColor=#7AA116;strokeColor=none;dashed=0;verticalLabelPosition=bottom;verticalAlign=top;align=center;html=1;fontSize=12;fontStyle=0;aspect=fixed;pointerEvents=1;shape=mxgraph.aws4.bucket;" vertex="1" parent="1">
          <mxGeometry x="543" y="440" width="75" height="78" as="geometry" />
        </mxCell>
      </root>
    </mxGraphModel>
  </diagram>
</mxfile>
